<svg xmlns="http://www.w3.org/2000/svg" viewBox="0 0 512 512" width="512" height="512" role="img" aria-label="OLS">
  <defs>
    <linearGradient id="olsBg" x1="0" y1="0" x2="1" y2="1">
      <stop offset="0" stop-color="#0e7c66"/>
      <stop offset="0.55" stop-color="#12a37d"/>
      <stop offset="1" stop-color="#1fb6a6"/>
    </linearGradient>
    <linearGradient id="olsGold" x1="0" y1="0" x2="0" y2="1">
      <stop offset="0" stop-color="#ffe08a"/>
      <stop offset="1" stop-color="#f4b53f"/>
    </linearGradient>
  </defs>
  <rect width="512" height="512" rx="112" fill="url(#olsBg)"/>
  <!-- open book -->
  <g transform="translate(256 196)">
    <path d="M-150 -34 C-104 -66 -44 -66 0 -40 C44 -66 104 -66 150 -34 L150 70 C104 44 44 44 0 68 C-44 44 -104 44 -150 70 Z" fill="#ffffff" opacity="0.96"/>
    <path d="M0 -40 L0 68" stroke="#0e7c66" stroke-width="9" stroke-linecap="round"/>
    <path d="M-120 -28 C-86 -46 -40 -46 -12 -30" stroke="#12a37d" stroke-width="8" fill="none" stroke-linecap="round" opacity="0.5"/>
    <path d="M120 -28 C86 -46 40 -46 12 -30" stroke="#12a37d" stroke-width="8" fill="none" stroke-linecap="round" opacity="0.5"/>
  </g>
  <!-- graduation tassel star -->
  <circle cx="256" cy="150" r="13" fill="url(#olsGold)"/>
  <!-- OLS wordmark -->
  <text x="256" y="392" font-family="Segoe UI, Arial, sans-serif" font-size="132" font-weight="800" fill="#ffffff" text-anchor="middle" letter-spacing="4">OLS</text>
  <text x="256" y="446" font-family="Segoe UI, Arial, sans-serif" font-size="34" font-weight="600" fill="url(#olsGold)" text-anchor="middle" letter-spacing="2">التعلّم العُماني</text>
</svg>
